<svg width="30" height="31" viewBox="0 0 30 31" fill="none" xmlns="http://www.w3.org/2000/svg">
<path d="M15 30.1321C6.74672 30.1321 0 23.3854 0 15.1321C0 6.8788 6.74672 0.13208 15 0.13208C23.2533 0.13208 30 6.8788 30 15.1321C30.0655 23.3854 23.3188 30.1321 15 30.1321ZM15 1.70413C7.59825 1.70413 1.63756 7.73033 1.63756 15.0666C1.63756 22.4028 7.66375 28.429 15 28.429C22.3362 28.429 28.3624 22.4028 28.3624 15.0666C28.3624 7.73033 22.4017 1.70413 15 1.70413Z" fill="#F15D22"/>
<path d="M19.7162 22.7958L14.1485 17.2282V7.07532H15.917V16.5076L20.9607 21.5513L19.7162 22.7958Z" fill="#F15D22"/>
</svg>
