<svg width="48" height="8" viewBox="0 0 48 8" fill="none" xmlns="http://www.w3.org/2000/svg">
<path d="M1.58538 6.056C1.94538 6.056 2.24138 5.776 2.24138 5.392C2.24138 4.992 1.94538 4.728 1.58538 4.728C1.22538 4.728 0.929375 4.992 0.929375 5.392C0.929375 5.776 1.22538 6.056 1.58538 6.056ZM8.6105 1.68C7.9305 1.68 7.3545 1.952 7.0105 2.392C6.7145 1.912 6.1945 1.68 5.5705 1.68C4.9865 1.68 4.4905 1.888 4.1705 2.272V1.728H3.2185V6H4.2185V3.832C4.2185 2.984 4.6665 2.552 5.3305 2.552C5.9385 2.552 6.2905 2.92 6.2905 3.68V6H7.2905V3.832C7.2905 2.984 7.7465 2.552 8.4025 2.552C9.0105 2.552 9.3625 2.92 9.3625 3.68V6H10.3625V3.552C10.3625 2.264 9.6425 1.68 8.6105 1.68ZM14.7764 1.728V3.888C14.7764 4.744 14.3044 5.176 13.6084 5.176C12.9764 5.176 12.6084 4.808 12.6084 4.032V1.728H11.6084V4.168C11.6084 5.456 12.3524 6.056 13.4484 6.056C14.0004 6.056 14.5044 5.848 14.8244 5.456V6H15.7764V1.728H14.7764ZM19.5097 1.68C18.8857 1.68 18.3657 1.888 18.0377 2.28V1.728H17.0857V6H18.0857V3.84C18.0857 2.984 18.5657 2.552 19.2777 2.552C19.9177 2.552 20.2937 2.92 20.2937 3.68V6H21.2937V3.552C21.2937 2.264 20.5337 1.68 19.5097 1.68ZM24.5613 6.056C25.3933 6.056 26.0573 5.696 26.3853 5.056L25.6173 4.608C25.3613 5.016 24.9773 5.2 24.5533 5.2C23.8173 5.2 23.2573 4.696 23.2573 3.864C23.2573 3.04 23.8173 2.528 24.5533 2.528C24.9773 2.528 25.3613 2.712 25.6173 3.12L26.3853 2.672C26.0573 2.024 25.3933 1.68 24.5613 1.68C23.2093 1.68 22.2493 2.584 22.2493 3.864C22.2493 5.144 23.2093 6.056 24.5613 6.056ZM29.6347 1.68C29.0427 1.68 28.5387 1.872 28.2107 2.224V0.0639997H27.2107V6H28.2107V3.84C28.2107 2.984 28.6907 2.552 29.4027 2.552C30.0427 2.552 30.4187 2.92 30.4187 3.68V6H31.4187V3.552C31.4187 2.264 30.6587 1.68 29.6347 1.68ZM35.6491 1.728L34.2971 4.888L32.9531 1.728H31.9131L33.7771 6.016L33.7051 6.184C33.5131 6.608 33.3051 6.776 32.9531 6.776C32.6811 6.776 32.4091 6.664 32.2171 6.48L31.8171 7.216C32.0891 7.464 32.5371 7.608 32.9611 7.608C33.6731 7.608 34.2171 7.312 34.6091 6.344L36.6091 1.728H35.6491ZM37.2885 6.056C37.6485 6.056 37.9445 5.776 37.9445 5.392C37.9445 4.992 37.6485 4.728 37.2885 4.728C36.9285 4.728 36.6325 4.992 36.6325 5.392C36.6325 5.776 36.9285 6.056 37.2885 6.056ZM41.3456 1.68C40.7216 1.68 40.2016 1.888 39.8736 2.28V1.728H38.9216V6H39.9216V3.84C39.9216 2.984 40.4016 2.552 41.1136 2.552C41.7536 2.552 42.1296 2.92 42.1296 3.68V6H43.1296V3.552C43.1296 2.264 42.3696 1.68 41.3456 1.68ZM45.3182 5.2L47.6702 2.36V1.728H44.0942V2.528H46.3902L44.0462 5.368V6H47.7342V5.2H45.3182Z" fill="#F15D22"/>
</svg>
