<svg width="16" height="13" viewBox="0 0 16 13" fill="none" xmlns="http://www.w3.org/2000/svg">
<path d="M15.833 1.6703L15.1983 1.03564L9.31942 6.91456C8.58456 7.64943 7.34865 7.64943 6.61379 6.91456L0.734876 1.06905L0.10022 1.7037L4.476 6.07949L0.10022 10.4553L0.734876 11.0899L5.11066 6.71414L5.97913 7.58262C6.51358 8.11707 7.21504 8.41769 7.94991 8.41769C8.68477 8.41769 9.38623 8.11707 9.92068 7.58262L10.7892 6.71414L15.1649 11.0899L15.7996 10.4553L11.4238 6.07949L15.833 1.6703Z" fill="#F15D22"/>
<path d="M14.5971 12.2255H1.40292C0.634657 12.2255 0 11.5908 0 10.8225V1.40292C0 0.634655 0.634657 0 1.40292 0H14.5971C15.3653 0 16 0.634655 16 1.40292V10.8225C16 11.5908 15.3653 12.2255 14.5971 12.2255ZM1.36952 0.901878C1.1023 0.901878 0.90188 1.10229 0.90188 1.36952V10.7891C0.90188 11.0564 1.1023 11.2568 1.36952 11.2568H14.5637C14.8309 11.2568 15.0313 11.0564 15.0313 10.7891V1.36952C15.0313 1.10229 14.8309 0.901878 14.5637 0.901878H1.36952Z" fill="#F15D22"/>
</svg>
