<svg width="30" height="30" viewBox="0 0 30 30" fill="none" xmlns="http://www.w3.org/2000/svg">
<path d="M15.0002 29.6633C23.0159 29.6633 29.5315 23.1477 29.5315 15.1321C29.5315 7.11646 23.0159 0.60083 15.0002 0.60083C6.98462 0.60083 0.468994 7.11646 0.468994 15.1321C0.468994 23.1477 6.98462 29.6633 15.0002 29.6633ZM3.75024 20.9211L9.65649 20.8743C10.3127 23.2415 11.4143 25.5383 12.9143 27.6008C8.90649 26.9446 5.55493 24.3899 3.75024 20.9211ZM11.1565 11.1477H18.5159C19.0549 13.7258 19.0549 16.3743 18.5627 18.9524L11.1565 18.9993C10.6174 16.3977 10.6174 13.7258 11.1565 11.1477ZM14.8362 27.0618C13.3596 25.1633 12.2815 23.0774 11.6252 20.8743L18.0706 20.8274C17.3909 23.0305 16.3127 25.1399 14.8362 27.0618ZM16.7112 27.6711C18.2581 25.5618 19.3596 23.2415 20.0159 20.804L26.3206 20.7571C24.4924 24.4368 20.9299 27.0852 16.7112 27.6711ZM27.6565 15.1321C27.6565 16.4446 27.4456 17.7102 27.094 18.8821L20.4612 18.929C20.9299 16.3508 20.9065 13.7258 20.4143 11.1477H27.0002C27.4221 12.3899 27.6565 13.7493 27.6565 15.1321ZM26.2034 9.27271H19.969C19.2893 6.92896 18.2112 4.65552 16.7112 2.59302C20.8596 3.15552 24.3518 5.71021 26.2034 9.27271ZM18.0237 9.27271H11.6487C12.3284 7.11646 13.3831 5.07739 14.8362 3.20239C16.2893 5.07739 17.344 7.11646 18.0237 9.27271ZM12.9143 2.66333C11.4377 4.70239 10.3596 6.92896 9.70337 9.27271H3.79712C5.60181 5.82739 8.92993 3.31958 12.9143 2.66333ZM9.25806 11.1477C8.76587 13.7493 8.76587 16.3977 9.23462 18.9993L2.97681 19.0461C2.55493 17.804 2.34399 16.4915 2.34399 15.1321C2.34399 13.7493 2.57837 12.3899 3.00024 11.1477H9.25806Z" fill="#F15D22"/>
</svg>
