<svg width="16" height="16" viewBox="0 0 16 16" fill="none" xmlns="http://www.w3.org/2000/svg">
<path d="M16 8C16 3.58887 12.4115 0 8 0C3.58854 0 0 3.58887 0 8C0 10.2557 0.942139 12.2924 2.4491 13.7482C2.48438 13.7941 2.52616 13.8313 2.57507 13.8627C4.00256 15.1846 5.90552 16 8 16C10.0945 16 11.9974 15.1846 13.4249 13.8627C13.4738 13.8313 13.5156 13.7941 13.5509 13.7482C15.0579 12.2924 16 10.2557 16 8ZM8 1C11.86 1 15 4.1403 15 8C15 9.63664 14.4312 11.1405 13.4865 12.3339C13.0528 10.9353 11.8147 9.8405 10.1344 9.33671C11.0501 8.67399 11.6491 7.6003 11.6491 6.38704C11.6491 4.3776 10.0124 2.74284 8 2.74284C5.98763 2.74284 4.35091 4.3776 4.35091 6.38704C4.35091 7.6003 4.94987 8.67399 5.8656 9.33671C4.18526 9.8405 2.94718 10.9353 2.51351 12.3339C1.56885 11.1405 1 9.63664 1 8C1 4.1403 4.13997 1 8 1ZM5.35091 6.38704C5.35091 4.92904 6.53906 3.74284 8 3.74284C9.46094 3.74284 10.6491 4.92904 10.6491 6.38704C10.6491 7.84505 9.46094 9.03125 8 9.03125C6.53906 9.03125 5.35091 7.84505 5.35091 6.38704ZM3.35384 13.2213C3.50415 11.388 5.44824 10.0312 8 10.0312C10.5518 10.0312 12.4958 11.388 12.6462 13.2213C11.4087 14.3237 9.78381 15 8 15C6.21619 15 4.59127 14.3237 3.35384 13.2213Z" fill="#F15D22"/>
</svg>
