<svg width="16" height="16" viewBox="0 0 16 16" fill="none" xmlns="http://www.w3.org/2000/svg">
<path d="M11.7257 16C11.1031 15.9954 10.4833 15.9172 9.87907 15.7672C7.79251 15.2638 5.64387 13.9867 3.82992 12.1711C2.01597 10.3556 0.737287 8.20655 0.233854 6.12198C-0.296243 3.92917 0.0818296 2.05314 1.29723 0.837736L1.64426 0.490706C1.95912 0.176478 2.38578 0 2.83061 0C3.27544 0 3.7021 0.176478 4.01696 0.490706L6.01119 2.48454C6.32562 2.79929 6.50223 3.22599 6.50223 3.67088C6.50223 4.11578 6.32562 4.54248 6.01119 4.85723L4.8332 6.03483C5.39792 7.02577 6.166 8.01752 7.07377 8.92529C7.98154 9.83305 8.97408 10.6015 9.96463 11.1663L11.1422 9.98826C11.298 9.83243 11.4829 9.70882 11.6865 9.62448C11.8901 9.54014 12.1082 9.49673 12.3286 9.49673C12.5489 9.49673 12.7671 9.54014 12.9706 9.62448C13.1742 9.70882 13.3592 9.83243 13.5149 9.98826L15.5088 11.9821C15.8233 12.2967 15.9999 12.7234 15.9999 13.1682C15.9999 13.6131 15.8233 14.0398 15.5088 14.3544L15.1613 14.7014C14.3045 15.5598 13.1185 16 11.7257 16ZM2.83061 1.19312C2.76707 1.19281 2.7041 1.20518 2.6454 1.2295C2.5867 1.25383 2.53345 1.28963 2.48876 1.3348L2.14133 1.68183C1.23117 2.59199 0.965324 4.06965 1.39274 5.84022C1.84524 7.71585 3.0101 9.66471 4.67242 11.3266C6.33474 12.9886 8.28321 14.1522 10.1592 14.6063C11.9302 15.0337 13.4071 14.7679 14.3172 13.8577L14.6643 13.5107C14.7549 13.42 14.8059 13.2969 14.8059 13.1686C14.8059 13.0404 14.7549 12.9173 14.6643 12.8266L12.6708 10.8328C12.5801 10.7421 12.4571 10.6912 12.3288 10.6912C12.2005 10.6912 12.0775 10.7421 11.9867 10.8328L10.4939 12.3255C10.4044 12.4152 10.2886 12.474 10.1634 12.4934C10.0382 12.5129 9.91003 12.492 9.79749 12.4338C8.57373 11.801 7.34002 10.8797 6.22968 9.76938C5.11934 8.65904 4.20003 7.42613 3.56566 6.20237C3.50741 6.08986 3.48646 5.96174 3.50585 5.83653C3.52524 5.71133 3.58396 5.59554 3.67351 5.50593L5.1667 4.01314C5.25737 3.9224 5.3083 3.79936 5.3083 3.67108C5.3083 3.5428 5.25737 3.41977 5.1667 3.32903L3.17287 1.3348C3.12804 1.28971 3.0747 1.25396 3.01594 1.22964C2.95719 1.20532 2.8942 1.19291 2.83061 1.19312Z" fill="#F15D22"/>
</svg>
