<svg width="30" height="29" viewBox="0 0 30 29" fill="none" xmlns="http://www.w3.org/2000/svg">
<path d="M28.7301 10.0258L20.1058 9.2051L16.2711 0.943884C16.0379 0.443518 15.5523 0.13208 15.0002 0.13208C14.4482 0.13208 13.9611 0.443518 13.7294 0.943884L9.89473 9.20362L1.2719 10.0258C0.728728 10.0759 0.274117 10.4272 0.0866646 10.9394C-0.100788 11.4531 0.0217202 12.0139 0.405482 12.4036L6.73903 18.8301L5.21579 27.019C5.11837 27.5415 5.32059 28.067 5.74273 28.3888C6.16634 28.712 6.72575 28.7696 7.20397 28.5364L15.0002 24.7548L22.795 28.5585C22.9913 28.6544 23.2024 28.7017 23.412 28.7017C23.7116 28.7017 24.0083 28.6043 24.2578 28.4139C24.6814 28.0921 24.8851 27.5666 24.7876 27.0426L23.2629 18.8228L29.595 12.4021C29.9788 12.0125 30.1013 11.4531 29.9138 10.9394C29.7264 10.4272 29.2732 10.0759 28.7301 10.0258ZM22.0083 18.101C21.8474 18.2634 21.7766 18.4951 21.8179 18.7209L23.4091 27.2995L15.3073 23.3452C15.2098 23.298 15.105 23.2744 15.0002 23.2744C14.8954 23.2744 14.7907 23.298 14.6947 23.3452L6.59143 27.2759L8.18257 18.7268C8.22537 18.5025 8.15452 18.2707 7.99364 18.1069L1.40326 11.4206L10.4276 10.5615C10.6755 10.5379 10.891 10.3844 10.9973 10.1586L14.9988 1.52838L15.0017 1.53281L19.0047 10.1586C19.1094 10.3844 19.3264 10.5379 19.5744 10.5615L28.5987 11.4206L22.0083 18.101Z" fill="#F15D22"/>
</svg>
