<svg width="10" height="10" viewBox="0 0 10 10" fill="none" xmlns="http://www.w3.org/2000/svg">
<path d="M2.23848 9.99846C2.1289 9.99846 2.01932 9.96375 1.92736 9.89229C1.75517 9.76162 1.67298 9.53703 1.71994 9.3206L2.36371 6.36414L0.181963 4.36731C0.0215116 4.2203 -0.0391467 3.98958 0.0254251 3.77724C0.0919535 3.56694 0.270015 3.41585 0.483297 3.39543L3.36946 3.12388L4.51023 0.336889C4.59437 0.132714 4.78612 0 4.99941 0C5.21269 0 5.40445 0.132714 5.48859 0.336889L6.62935 3.12388L9.51552 3.39748C9.7288 3.41789 9.90686 3.56694 9.97339 3.77928C10.0399 3.98958 9.97926 4.22234 9.81881 4.36935L7.63706 6.36618L8.28083 9.32264C8.32779 9.53907 8.24756 9.7657 8.07341 9.89433C7.90122 10.025 7.67033 10.0352 7.48835 9.92088L4.99941 8.36914L2.51046 9.92292C2.42632 9.97192 2.3324 9.99846 2.23848 9.99846ZM4.99941 7.69741C5.09333 7.69741 5.18725 7.72395 5.27139 7.77704L7.61945 9.24301L7.01287 6.45194C6.96982 6.25389 7.03439 6.04563 7.18115 5.91087L9.24157 4.02634L6.51586 3.76703C6.32019 3.74866 6.14996 3.62003 6.07365 3.43014L4.99745 0.800367L3.92125 3.43014C3.84494 3.61799 3.67666 3.74662 3.48099 3.76499L0.757238 4.02634L2.81766 5.91087C2.96442 6.04563 3.02899 6.25185 2.98594 6.45194L2.37936 9.24301L4.72742 7.77704C4.81156 7.72395 4.90548 7.69741 4.99941 7.69741Z" fill="#FFC107"/>
</svg>
