<svg width="10" height="10" viewBox="0 0 10 10" fill="none" xmlns="http://www.w3.org/2000/svg">
<path d="M9.97456 3.83557C9.90998 3.634 9.72994 3.48919 9.51663 3.46962L6.63014 3.20934L5.48924 0.536153C5.4051 0.340458 5.21331 0.213257 5.00001 0.213257C4.7867 0.213257 4.59492 0.340458 4.51077 0.536153L3.36987 3.20934L0.48338 3.46962C0.27203 3.48919 0.0919912 3.63204 0.025455 3.83557C-0.0410811 4.03713 0.0195842 4.26022 0.180054 4.40112L2.36205 6.31502L1.72017 9.14868C1.6732 9.35611 1.75344 9.57333 1.9276 9.69662C2.01958 9.76316 2.12917 9.79838 2.23876 9.79838C2.33269 9.79838 2.42663 9.77294 2.51077 9.72206L5.00001 8.23478L7.48924 9.72206C7.67124 9.83165 7.9002 9.82187 8.07437 9.69662C8.24658 9.57138 8.32877 9.35611 8.2818 9.14868L7.63797 6.31502L9.81996 4.40112C9.97847 4.26022 10.0391 4.03909 9.97456 3.83557Z" fill="#FFC107"/>
</svg>
