<svg width="37" height="15" viewBox="0 0 37 15" fill="none" xmlns="http://www.w3.org/2000/svg">
<path fill-rule="evenodd" clip-rule="evenodd" d="M36.0482 7.7502C36.0482 5.18677 34.8066 3.16406 32.4334 3.16406C30.0502 3.16406 28.6083 5.18677 28.6083 7.73017C28.6083 10.7442 30.3106 12.2662 32.7538 12.2662C33.9454 12.2662 34.8466 11.9959 35.5275 11.6154V9.61269C34.8466 9.95314 34.0656 10.1634 33.0742 10.1634C32.1029 10.1634 31.2418 9.82297 31.1316 8.64139H36.0282C36.0282 8.51121 36.0482 7.99052 36.0482 7.7502ZM31.1016 6.79892C31.1016 5.66741 31.7925 5.19678 32.4234 5.19678C33.0342 5.19678 33.6851 5.66741 33.6851 6.79892H31.1016Z" fill="#CBCBCB"/>
<path fill-rule="evenodd" clip-rule="evenodd" d="M24.743 3.16406C23.7617 3.16406 23.1309 3.62468 22.7804 3.94511L22.6502 3.32428H20.4473V14.9999L22.9506 14.4692L22.9606 11.6354C23.3211 11.8957 23.8518 12.2662 24.733 12.2662C26.5254 12.2662 28.1576 10.8243 28.1576 7.65006C28.1476 4.74618 26.4954 3.16406 24.743 3.16406ZM24.1422 10.0633C23.5514 10.0633 23.2009 9.85301 22.9606 9.59266L22.9506 5.87769C23.211 5.5873 23.5714 5.38704 24.1422 5.38704C25.0534 5.38704 25.6843 6.4084 25.6843 7.72016C25.6843 9.06195 25.0634 10.0633 24.1422 10.0633Z" fill="#CBCBCB"/>
<path fill-rule="evenodd" clip-rule="evenodd" d="M17.0027 2.57344L19.516 2.03272V0L17.0027 0.53071V2.57344Z" fill="#CBCBCB"/>
<path d="M19.516 3.33447H17.0027V12.0962H19.516V3.33447Z" fill="#CBCBCB"/>
<path fill-rule="evenodd" clip-rule="evenodd" d="M14.3091 4.07545L14.1489 3.33446H11.986V12.0962H14.4893V6.15824C15.0801 5.38721 16.0814 5.52739 16.3919 5.63754V3.33446C16.0714 3.2143 14.8999 2.99401 14.3091 4.07545Z" fill="#CBCBCB"/>
<path fill-rule="evenodd" clip-rule="evenodd" d="M9.3024 1.16162L6.85913 1.68232L6.84912 9.70304C6.84912 11.185 7.96061 12.2765 9.44259 12.2765C10.2637 12.2765 10.8645 12.1263 11.1949 11.946V9.91332C10.8745 10.0435 9.29239 10.5041 9.29239 9.02213V5.46738H11.1949V3.33453H9.29239L9.3024 1.16162Z" fill="#CBCBCB"/>
<path fill-rule="evenodd" clip-rule="evenodd" d="M2.53339 5.87769C2.53339 5.48717 2.85382 5.33697 3.38453 5.33697C4.14554 5.33697 5.10683 5.56728 5.86785 5.97783V3.62468C5.03673 3.29424 4.21564 3.16406 3.38453 3.16406C1.35181 3.16406 0 4.22548 0 5.99785C0 8.76155 3.80509 8.32096 3.80509 9.51255C3.80509 9.97317 3.40455 10.1234 2.8438 10.1234C2.01269 10.1234 0.951272 9.78291 0.110147 9.3223V11.7055C1.04139 12.106 1.98265 12.2762 2.8438 12.2762C4.92659 12.2762 6.3585 11.2449 6.3585 9.45247C6.34849 6.46848 2.53339 6.99919 2.53339 5.87769Z" fill="#CBCBCB"/>
</svg>
