<svg width="34" height="15" viewBox="0 0 34 15" fill="none" xmlns="http://www.w3.org/2000/svg">
<path d="M28.359 0.112732H1.52843C0.745455 0.112732 0.110626 0.752905 0.110626 1.54253V13.4575C0.110626 14.2471 0.745455 14.8873 1.52843 14.8873H28.359C28.8895 14.8873 29.3756 14.5887 29.6189 14.1133L33.1405 8.15583C33.3511 7.74443 33.3511 7.25561 33.1405 6.84421L29.6189 0.88673C29.3756 0.411371 28.8895 0.112732 28.359 0.112732Z" fill="#CBCBCB"/>
<path d="M30.9346 7.5C30.9346 7.89483 30.6171 8.21489 30.2255 8.21489C29.8339 8.21489 29.5164 7.89483 29.5164 7.5C29.5164 7.10516 29.8339 6.7851 30.2255 6.7851C30.6171 6.7851 30.9346 7.10516 30.9346 7.5Z" fill="white"/>
<path d="M7.05443 5.98478H8.101C8.17088 5.98478 8.21664 6.05847 8.18602 6.12176L5.47105 11.7499C5.41941 11.8569 5.26806 11.8571 5.21613 11.7501L2.48423 6.12192C2.4535 6.05862 2.49919 5.98474 2.56915 5.98474H3.61709C3.65394 5.98474 3.68741 6.00638 3.70292 6.04012L5.34425 9.62578L6.96837 6.04041C6.98377 6.00648 7.01746 5.98474 7.05443 5.98474" fill="white"/>
<path d="M13.1296 9.96642L13.8361 10.3808C13.8823 10.4079 13.8976 10.4691 13.8689 10.5146C13.2373 11.5138 12.3455 12.0135 11.1933 12.0135C10.3503 12.0135 9.66994 11.7062 9.15217 11.0916C8.64639 10.4932 8.39346 9.69056 8.39346 8.68374C8.39346 8.328 8.46977 7.95395 8.62231 7.56172C8.90319 6.83804 9.37492 6.33455 10.0373 6.05146C10.3865 5.90193 10.7718 5.82709 11.1933 5.82709C12.4054 5.82709 13.2203 6.34066 13.6378 7.36765C13.8344 7.84884 13.9247 8.30766 13.9087 8.74435L13.8999 8.99807C13.8981 9.04945 13.8563 9.09007 13.8054 9.09007H9.53148C9.53148 9.64006 9.68998 10.0969 10.0071 10.4609C10.3443 10.841 10.7818 11.031 11.3197 11.031C11.9978 11.031 12.658 10.5848 12.9999 10.0022C13.0267 9.9564 13.0839 9.93965 13.1296 9.96642ZM12.8129 8.24705C12.7527 7.81849 12.5901 7.47277 12.3252 7.20989C12.0441 6.9309 11.693 6.79141 11.2716 6.79141C10.8219 6.79141 10.4467 6.92185 10.1456 7.18264C9.84458 7.44343 9.65585 7.79819 9.57964 8.24705H12.8129Z" fill="white"/>
<path d="M15.0209 5.98474H15.9337C15.9859 5.98474 16.0282 6.02745 16.0282 6.08006V6.81563C16.4537 6.15661 17.0497 5.82709 17.8165 5.82709C19.1611 5.82709 19.8335 6.65798 19.8335 8.31978V11.718C19.8335 11.7706 19.7912 11.8133 19.7389 11.8133H18.8201C18.768 11.8133 18.7256 11.7706 18.7256 11.718V8.29557C18.7256 7.7982 18.6393 7.43636 18.4667 7.20989C18.2699 6.94717 17.9328 6.81563 17.4552 6.81563C16.5039 6.81563 16.0282 7.42027 16.0282 8.62908V11.718C16.0282 11.7706 15.9859 11.8133 15.9337 11.8133H15.0209C14.9688 11.8133 14.9264 11.7706 14.9264 11.718V6.08006C14.9264 6.02745 14.9688 5.98474 15.0209 5.98474Z" fill="white"/>
<path d="M25.6665 2.95813H26.5853C26.6374 2.95813 26.6798 3.00084 26.6798 3.05345V11.718C26.6798 11.7707 26.6374 11.8134 26.5853 11.8134H25.6665C25.6143 11.8134 25.5719 11.7707 25.5719 11.718V10.8672C25.0701 11.6314 24.4118 12.0135 23.597 12.0135C22.6898 12.0135 21.9814 11.6719 21.4717 10.9885C21.022 10.3861 20.7973 9.70876 20.7973 8.95666C20.7973 8.37038 20.9097 7.84068 21.1345 7.36762C21.3833 6.84202 21.7426 6.44577 22.2122 6.17887C22.6256 5.94438 23.0712 5.82705 23.5489 5.82705C23.9463 5.82705 24.3377 5.93629 24.723 6.15457C25.1083 6.37294 25.3913 6.65603 25.5719 7.00369V3.05345C25.5719 3.00084 25.6143 2.95813 25.6665 2.95813ZM25.4405 8.93191C25.4405 8.09108 25.1517 7.49459 24.5741 7.14253C24.291 6.97051 23.9694 6.88443 23.6089 6.88443C22.8686 6.88443 22.349 7.25018 22.0506 7.98146C21.9226 8.29441 21.8587 8.61906 21.8587 8.95537C21.8587 9.64766 22.097 10.1992 22.5739 10.6098C22.8374 10.8368 23.1747 10.9501 23.5857 10.9501C24.3842 10.9501 24.9365 10.6001 25.2429 9.89999C25.3746 9.59884 25.4405 9.27621 25.4405 8.93191Z" fill="white"/>
</svg>
