<svg width="53" height="15" viewBox="0 0 53 15" fill="none" xmlns="http://www.w3.org/2000/svg">
<path d="M8.91928 7.47035L14.5943 1.79426C14.768 1.62055 14.884 1.32619 14.884 1.09944C14.8843 0.962494 14.8575 0.826843 14.8052 0.70027C14.753 0.573697 14.6762 0.458693 14.5794 0.361859C14.4825 0.265024 14.3675 0.188265 14.241 0.135985C14.1144 0.083705 13.9787 0.0569339 13.8418 0.057208C13.5521 0.057208 13.3207 0.173185 13.0887 0.34689L7.41315 6.02247L1.73705 0.34689C1.56335 0.173185 1.26898 0.057208 1.04223 0.057208C0.905287 0.0569339 0.769636 0.083705 0.643064 0.135985C0.516491 0.188265 0.401487 0.265024 0.304653 0.361859C0.207818 0.458693 0.131059 0.573697 0.0787789 0.70027C0.0264991 0.826843 -0.000272079 0.962494 2.08465e-06 1.09944C2.08465e-06 1.38912 0.115979 1.62055 0.289684 1.85251L5.96526 7.5286L0.289684 13.2047C0.0582505 13.3784 2.08465e-06 13.6728 2.08465e-06 13.9578C-0.000272079 14.0947 0.0264991 14.2304 0.0787789 14.3569C0.131059 14.4835 0.207818 14.5985 0.304653 14.6953C0.401487 14.7922 0.516491 14.8689 0.643064 14.9212C0.769636 14.9735 0.905287 15.0003 1.04223 15C1.33191 15 1.56335 14.884 1.73705 14.7103L7.41315 9.0337L13.0887 14.7093C13.3202 14.9407 13.5568 14.999 13.8418 14.999C13.9787 14.9992 14.1144 14.9725 14.241 14.9202C14.3675 14.8679 14.4825 14.7911 14.5794 14.6943C14.6762 14.5975 14.753 14.4825 14.8052 14.3559C14.8575 14.2293 14.8843 14.0937 14.884 13.9567C14.884 13.667 14.768 13.4356 14.5943 13.2619L8.91928 7.47035ZM37.0657 7.47035C37.0657 11.5821 40.4254 14.9412 44.5366 14.9412C48.6478 14.9412 52.0075 11.5821 52.0075 7.47035C52.0075 3.35864 48.6478 0 44.5366 0C40.4254 0 37.0657 3.35864 37.0657 7.47035ZM39.2084 7.47035C39.2084 4.51633 41.5831 2.08446 44.5943 2.08446C47.5484 2.08446 49.9802 4.45912 49.9802 7.47035C49.9802 10.4816 47.6061 12.8562 44.5943 12.8562C41.5826 12.8562 39.2136 10.4244 39.2136 7.47035H39.2084ZM36.5441 0.173705H36.2492C35.3224 0.173705 34.3962 0.463386 33.6488 1.04223C33.5329 0.574162 33.1277 0.230913 32.6643 0.230913C32.085 0.230913 31.6798 0.69898 31.6798 1.21541V13.782C31.6796 13.9189 31.7063 14.0546 31.7586 14.1812C31.8109 14.3077 31.8877 14.4227 31.9845 14.5196C32.0813 14.6164 32.1963 14.6932 32.3229 14.7454C32.4495 14.7977 32.5851 14.8245 32.7221 14.8242C32.9982 14.8234 33.2628 14.7133 33.4581 14.518C33.6534 14.3228 33.7635 14.0581 33.7643 13.782V6.08488C33.7643 3.53651 33.9957 2.49428 36.1967 2.20512H36.6023C37.1817 2.20512 37.6446 1.79946 37.6446 1.22062C37.5926 0.583524 37.1235 0.178386 36.5441 0.178386V0.173705ZM29.5366 6.08175C29.0685 4.00146 27.9727 2.31745 26.2357 1.21698C23.6873 -0.404618 20.3276 -0.288642 17.8958 1.44841C15.9268 2.83857 14.7686 5.21271 14.7686 7.58737C14.7686 8.16673 14.8206 8.80435 15 9.38267C15.7583 12.3351 18.3066 14.5933 21.3127 14.9365C22.2035 15.0512 23.1081 14.9922 23.9765 14.7628C24.7296 14.5891 25.5404 14.2417 26.2352 13.8361C26.9882 13.368 27.5666 12.7356 28.1465 12.0408L28.1985 11.9888C28.6041 11.4676 28.5459 10.7718 28.0825 10.4249C27.7351 10.1352 27.098 10.0192 26.5769 10.6563C26.4609 10.83 26.3454 10.946 26.2295 11.1244C25.8144 11.6041 25.3257 12.0147 24.7816 12.3409C24.0285 12.7465 23.16 12.9779 22.2914 12.9779C19.3374 12.9259 17.7741 10.8976 17.1947 9.38735C17.0787 9.09767 17.021 8.80799 16.9633 8.51882V8.34512H27.6248C29.015 8.29311 29.7675 7.24464 29.5361 6.08644L29.5366 6.08175ZM17.0273 6.25546V6.13948C17.6066 3.82307 19.7493 2.0855 22.2394 2.0855C24.7878 2.0855 26.9305 3.8808 27.5099 6.25546H17.0273Z" fill="#CBCBCB"/>
</svg>
